<?xml version="1.0" encoding="utf-8"?>
<!-- Generator: Adobe Illustrator 20.1.0, SVG Export Plug-In . SVG Version: 6.00 Build 0)  -->
<svg version="1.1" id="Layer_1" xmlns="http://www.w3.org/2000/svg" xmlns:xlink="http://www.w3.org/1999/xlink" x="0px" y="0px"
	 viewBox="0 0 238 57.5" style="enable-background:new 0 0 238 57.5;" xml:space="preserve">
<style type="text/css">
	.st0{fill:#175E99;}
	.st1{fill:#F1951A;}
	.st2{fill-rule:evenodd;clip-rule:evenodd;fill:#F1951A;}
</style>
<g>
	<g id="I_18_">
		<polygon class="st0" points="120.5,54.9 131.7,12.1 142.6,12.1 131.6,54.9 		"/>
	</g>
	<g id="L_18_">
		<polygon class="st0" points="137.9,54.9 146.3,23 157.4,23 149.1,54.9 		"/>
	</g>
	<g id="N_36_">
		<path class="st0" d="M180.6,54.9l4.7-18.1c0.7-2.6,1-4.2,1-4.7c0-1-0.4-1.8-1.1-2.3c-0.7-0.6-1.8-0.9-3.2-0.9
			c-1.5,0-3.2,0.5-5,1.5c-1.8,1-3.3,2.4-4.4,4c-0.8,1.2-1.7,3.7-2.6,7.4l-3.4,13.1h-11.2l8.3-31.9h10.6l-0.9,3.7
			c2.3-1.5,4.5-2.6,6.5-3.3c2.2-0.7,4.5-1.1,7-1.1c3.3,0,5.9,0.8,7.8,2.3c1.9,1.5,2.9,3.6,2.9,6.1c0,1.1-0.4,3.2-1.2,6.3l-4.7,17.9
			H180.6z"/>
	</g>
	<g id="E_18_">
		<path class="st0" d="M218,55.6c-5.3,0-9.7-1.4-13-4.1c-3.3-2.7-5-6.3-5-10.8c0-4.3,1.5-8.2,4.5-11.6c4.1-4.6,10-6.9,17.6-6.9
			c4.8,0,8.7,1.2,11.6,3.6c2.9,2.4,4.3,5.8,4.3,10.2c0,2.1-0.3,3.9-0.7,5.6l-0.1,0.2h-26.5c0,0.2,0,0.4,0,0.5c0,2,0.7,3.6,2.1,4.8
			c1.4,1.2,3.2,1.9,5.3,1.9c3.4,0,6.1-1.4,8-4.2l0.1-0.1l10.1,1.3l-0.2,0.4c-1.9,3.1-4.4,5.4-7.5,7C225.4,54.9,221.9,55.6,218,55.6z
			 M227.8,36.1c0-0.2,0-0.4,0-0.6c0-2.2-0.6-3.9-1.9-5c-1.2-1.1-2.9-1.7-5.1-1.7c-2.1,0-4,0.6-5.7,1.9c-1.6,1.2-2.7,3-3.3,5.3H227.8
			z"/>
	</g>
	<ellipse class="st1" cx="153.4" cy="14.7" rx="5.8" ry="5.4"/>
	<path class="st2" d="M0,57.5c19.6-19.2,35.6-27.7,45.4-32.1c-1.8,3.5-3.8,17.4-3.8,17.4s30.7-25.7,84.1-29.5
		c-3.3-0.3-6.6-0.4-9.9-0.4c-29.2,0-57.1,10.6-64,14.8c1.2-8.6,5.1-14.2,5.1-14.2S28.8,18.4,0,57.5z"/>
	<g id="N_35_">
		<path class="st0" d="M103.3,54.9l4.7-18.1c0.8-3.3,1-4.3,1-4.7c0-1-0.4-1.8-1.1-2.3c-0.7-0.6-1.8-0.9-3.2-0.9
			c-1.5,0-3.2,0.5-5,1.5c-1.8,1-3.3,2.4-4.4,4c-0.8,1.2-1.7,3.7-2.6,7.4l-3.4,13.1H78.2L86.5,23h10.6l-0.9,3.7
			c2.3-1.5,4.5-2.6,6.5-3.3c2.2-0.7,4.5-1.1,7-1.1c3.3,0,5.9,0.8,7.8,2.3c1.9,1.5,2.9,3.6,2.9,6.1c0,1.1-0.4,3.2-1.2,6.3l-4.7,17.9
			H103.3z"/>
	</g>
	<g>
		<path class="st0" d="M44.2,55.8c-5.8,0-10.7-1.2-14.7-3.4c-3.9-2.3-6.8-5.1-8.4-8.5c-0.2-0.4-0.4-0.8-0.5-1.1l-0.1-0.2l0.2-0.1
			c3.6-2.6,7.2-5.1,10.8-7.3l0.4-0.2l0.1,0.4c0.4,2.8,1.6,5.2,3.7,7.1c2.5,2.4,5.9,3.6,10,3.6c3.4,0,6.7-1,9.8-2.9
			c3.1-1.9,5.7-4.9,7.8-8.8c0.5-0.9,0.9-1.8,1.3-2.8l0-0.1l0.1,0c4.6-2.2,9.5-4.3,14.4-6.1l0.4-0.2l0,0.4c-0.4,4.7-1.9,9.2-4.5,13.6
			c-3.1,5.3-7.3,9.4-12.6,12.3C57,54.3,50.9,55.8,44.2,55.8z"/>
	</g>
	<g>
		<path class="st0" d="M18.7,32.8c0.1-2.9,0.6-6.1,1.6-9.2c1.4-4.7,3.7-8.8,6.6-12.3c3-3.5,6.7-6.2,11.2-8.2c4.5-2,9.7-3,15.4-3
			c7.7,0,14,2.1,18.7,6.2c2.9,2.5,5,5.6,6.1,9.2l0.1,0.3l-0.3,0.1c-4.1,1.1-8.2,2.3-12.1,3.6l-0.3,0.1l-0.1-0.3
			c-0.6-2.4-1.7-4.4-3.4-5.9c-2.6-2.3-5.9-3.5-9.8-3.5c-6.1,0-11.1,2.5-15,7.4c-0.9,1.2-1.7,2.4-2.4,3.7l0,0.1l-0.1,0
			c-5.4,3.4-10.7,7.5-15.9,12.1l-0.5,0.4L18.7,32.8z"/>
	</g>
</g>
</svg>
